<svg xmlns="http://www.w3.org/2000/svg" xmlns:xlink="http://www.w3.org/1999/xlink" width="2360" zoomAndPan="magnify" viewBox="0 0 1770 2100.000016" height="2800" preserveAspectRatio="xMidYMid meet" version="1.0"><defs><g/><clipPath id="755907a0c8"><path d="M 40.042969 518.753906 L 1745 518.753906 L 1745 1411.109375 L 40.042969 1411.109375 Z M 40.042969 518.753906 " clip-rule="nonzero"/></clipPath><clipPath id="211bc47be8"><path d="M 152.488281 518.753906 L 1632.679688 518.753906 C 1662.5 518.753906 1691.101562 530.601562 1712.191406 551.6875 C 1733.277344 572.777344 1745.125 601.375 1745.125 631.199219 L 1745.125 1298.664062 C 1745.125 1328.484375 1733.277344 1357.085938 1712.191406 1378.175781 C 1691.101562 1399.261719 1662.5 1411.109375 1632.679688 1411.109375 L 152.488281 1411.109375 C 122.664062 1411.109375 94.0625 1399.261719 72.976562 1378.175781 C 51.886719 1357.085938 40.042969 1328.484375 40.042969 1298.664062 L 40.042969 631.199219 C 40.042969 601.375 51.886719 572.777344 72.976562 551.6875 C 94.0625 530.601562 122.664062 518.753906 152.488281 518.753906 Z M 152.488281 518.753906 " clip-rule="nonzero"/></clipPath></defs><g clip-path="url(#755907a0c8)"><g clip-path="url(#211bc47be8)"><path fill="#000000" d="M 40.042969 518.753906 L 1744.582031 518.753906 L 1744.582031 1411.109375 L 40.042969 1411.109375 Z M 40.042969 518.753906 " fill-opacity="1" fill-rule="nonzero"/></g></g><path stroke-linecap="butt" transform="matrix(7.49643, 0, 0, 7.49643, 28.579676, 95.225559)" fill="none" stroke-linejoin="miter" d="M 6.718616 30.999785 L 6.718616 26.523696 L 20.156263 26.523696 L 20.156263 22.03927 L 11.203043 22.03927 L 11.203043 17.56266 L 24.640689 17.56266 L 24.640689 30.999785 Z M 2.242006 26.523696 L 2.242006 13.078234 L 6.718616 13.078234 L 6.718616 26.523696 Z M 6.718616 13.078234 L 6.718616 8.601624 L 24.640689 8.601624 L 24.640689 13.078234 Z M 29.121989 30.999785 L 29.121989 13.078234 L 33.598599 13.078234 L 33.598599 22.03927 L 47.036245 22.03927 L 47.036245 13.078234 L 51.520671 13.078234 L 51.520671 30.999785 L 47.036245 30.999785 L 47.036245 26.523696 L 33.598599 26.523696 L 33.598599 30.999785 Z M 33.598599 13.078234 L 33.598599 8.601624 L 47.036245 8.601624 L 47.036245 13.078234 Z M 73.916227 30.999785 L 73.916227 17.56266 L 69.439617 17.56266 L 69.439617 13.078234 L 73.916227 13.078234 L 73.916227 8.601624 L 78.400653 8.601624 L 78.400653 30.999785 Z M 56.002492 30.999785 L 56.002492 8.601624 L 60.479102 8.601624 L 60.479102 13.078234 L 64.963007 13.078234 L 64.963007 17.56266 L 60.479102 17.56266 L 60.479102 30.999785 Z M 64.963007 22.03927 L 64.963007 17.56266 L 69.439617 17.56266 L 69.439617 22.03927 Z M 82.882474 30.999785 L 82.882474 8.601624 L 105.280636 8.601624 L 105.280636 13.078234 L 87.359084 13.078234 L 87.359084 17.56266 L 100.79621 17.56266 L 100.79621 22.03927 L 87.359084 22.03927 L 87.359084 26.523696 L 105.280636 26.523696 L 105.280636 30.999785 Z M 141.116444 26.523696 L 141.116444 30.999785 L 127.678797 30.999785 L 127.678797 26.523696 Z M 123.202187 26.523696 L 123.202187 13.078234 L 127.678797 13.078234 L 127.678797 26.523696 Z M 127.678797 13.078234 L 127.678797 8.601624 L 141.116444 8.601624 L 141.116444 13.078234 Z M 141.116444 26.523696 L 141.116444 13.078234 L 145.60087 13.078234 L 145.60087 26.523696 Z M 167.996426 22.03927 L 167.996426 26.523696 L 163.519816 26.523696 L 163.519816 22.03927 Z M 150.082691 22.03927 L 150.082691 8.601624 L 154.55878 8.601624 L 154.55878 22.03927 Z M 154.55878 26.523696 L 154.55878 22.03927 L 159.043206 22.03927 L 159.043206 26.523696 Z M 159.043206 30.999785 L 159.043206 26.523696 L 163.519816 26.523696 L 163.519816 30.999785 Z M 167.996426 22.03927 L 167.996426 8.601624 L 172.480852 8.601624 L 172.480852 22.03927 Z M 176.962673 30.999785 L 176.962673 8.601624 L 199.360834 8.601624 L 199.360834 13.078234 L 181.439283 13.078234 L 181.439283 17.56266 L 194.876408 17.56266 L 194.876408 22.03927 L 181.439283 22.03927 L 181.439283 26.523696 L 199.360834 26.523696 L 199.360834 30.999785 Z M 203.842655 30.999785 L 203.842655 8.601624 L 221.756391 8.601624 L 221.756391 13.078234 L 208.319265 13.078234 L 208.319265 22.03927 L 221.756391 22.03927 L 221.756391 26.523696 L 208.319265 26.523696 L 208.319265 30.999785 Z M 221.756391 30.999785 L 221.756391 26.523696 L 226.240817 26.523696 L 226.240817 30.999785 Z M 221.756391 22.03927 L 221.756391 13.078234 L 226.240817 13.078234 L 226.240817 22.03927 Z M 221.756391 22.03927 " stroke="#000000" stroke-width="2.4" stroke-opacity="1" stroke-miterlimit="4"/><g fill="#a6a6a6" fill-opacity="1"><g transform="translate(28.579676, 327.61489)"><g><path d="M 50.375 0 L 50.375 -33.578125 L 151.125 -33.578125 L 151.125 -67.171875 L 83.96875 -67.171875 L 83.96875 -100.75 L 184.71875 -100.75 L 184.71875 0 Z M 16.796875 -33.578125 L 16.796875 -134.34375 L 50.375 -134.34375 L 50.375 -33.578125 Z M 50.375 -134.34375 L 50.375 -167.921875 L 184.71875 -167.921875 L 184.71875 -134.34375 Z M 50.375 -134.34375 "/></g></g></g><g fill="#a6a6a6" fill-opacity="1"><g transform="translate(230.084097, 327.61489)"><g><path d="M 16.796875 0 L 16.796875 -134.34375 L 50.375 -134.34375 L 50.375 -67.171875 L 151.125 -67.171875 L 151.125 -134.34375 L 184.71875 -134.34375 L 184.71875 0 L 151.125 0 L 151.125 -33.578125 L 50.375 -33.578125 L 50.375 0 Z M 50.375 -134.34375 L 50.375 -167.921875 L 151.125 -167.921875 L 151.125 -134.34375 Z M 50.375 -134.34375 "/></g></g></g><g fill="#a6a6a6" fill-opacity="1"><g transform="translate(431.588518, 327.61489)"><g><path d="M 151.125 0 L 151.125 -100.75 L 117.546875 -100.75 L 117.546875 -134.34375 L 151.125 -134.34375 L 151.125 -167.921875 L 184.71875 -167.921875 L 184.71875 0 Z M 16.796875 0 L 16.796875 -167.921875 L 50.375 -167.921875 L 50.375 -134.34375 L 83.96875 -134.34375 L 83.96875 -100.75 L 50.375 -100.75 L 50.375 0 Z M 83.96875 -67.171875 L 83.96875 -100.75 L 117.546875 -100.75 L 117.546875 -67.171875 Z M 83.96875 -67.171875 "/></g></g></g><g fill="#a6a6a6" fill-opacity="1"><g transform="translate(633.092939, 327.61489)"><g><path d="M 16.796875 0 L 16.796875 -167.921875 L 184.71875 -167.921875 L 184.71875 -134.34375 L 50.375 -134.34375 L 50.375 -100.75 L 151.125 -100.75 L 151.125 -67.171875 L 50.375 -67.171875 L 50.375 -33.578125 L 184.71875 -33.578125 L 184.71875 0 Z M 16.796875 0 "/></g></g></g><g fill="#a6a6a6" fill-opacity="1"><g transform="translate(834.59736, 327.61489)"><g/></g></g><g fill="#a6a6a6" fill-opacity="1"><g transform="translate(935.349627, 327.61489)"><g><path d="M 151.125 -33.578125 L 151.125 0 L 50.375 0 L 50.375 -33.578125 Z M 16.796875 -33.578125 L 16.796875 -134.34375 L 50.375 -134.34375 L 50.375 -33.578125 Z M 50.375 -134.34375 L 50.375 -167.921875 L 151.125 -167.921875 L 151.125 -134.34375 Z M 151.125 -33.578125 L 151.125 -134.34375 L 184.71875 -134.34375 L 184.71875 -33.578125 Z M 151.125 -33.578125 "/></g></g></g><g fill="#a6a6a6" fill-opacity="1"><g transform="translate(1136.854048, 327.61489)"><g><path d="M 151.125 -67.171875 L 151.125 -33.578125 L 117.546875 -33.578125 L 117.546875 -67.171875 Z M 16.796875 -67.171875 L 16.796875 -167.921875 L 50.375 -167.921875 L 50.375 -67.171875 Z M 50.375 -33.578125 L 50.375 -67.171875 L 83.96875 -67.171875 L 83.96875 -33.578125 Z M 83.96875 0 L 83.96875 -33.578125 L 117.546875 -33.578125 L 117.546875 0 Z M 151.125 -67.171875 L 151.125 -167.921875 L 184.71875 -167.921875 L 184.71875 -67.171875 Z M 151.125 -67.171875 "/></g></g></g><g fill="#a6a6a6" fill-opacity="1"><g transform="translate(1338.358469, 327.61489)"><g><path d="M 16.796875 0 L 16.796875 -167.921875 L 184.71875 -167.921875 L 184.71875 -134.34375 L 50.375 -134.34375 L 50.375 -100.75 L 151.125 -100.75 L 151.125 -67.171875 L 50.375 -67.171875 L 50.375 -33.578125 L 184.71875 -33.578125 L 184.71875 0 Z M 16.796875 0 "/></g></g></g><g fill="#a6a6a6" fill-opacity="1"><g transform="translate(1539.86289, 327.61489)"><g><path d="M 16.796875 0 L 16.796875 -167.921875 L 151.125 -167.921875 L 151.125 -134.34375 L 50.375 -134.34375 L 50.375 -67.171875 L 151.125 -67.171875 L 151.125 -33.578125 L 50.375 -33.578125 L 50.375 0 Z M 151.125 0 L 151.125 -33.578125 L 184.71875 -33.578125 L 184.71875 0 Z M 151.125 -67.171875 L 151.125 -134.34375 L 184.71875 -134.34375 L 184.71875 -67.171875 Z M 151.125 -67.171875 "/></g></g></g><g fill="#ffffff" fill-opacity="1"><g transform="translate(142.326878, 740.181095)"><g><path d="M 8.390625 0 L 8.390625 -83.953125 L 75.5625 -83.953125 L 75.5625 -67.171875 L 25.1875 -67.171875 L 25.1875 -33.578125 L 75.5625 -33.578125 L 75.5625 -16.796875 L 25.1875 -16.796875 L 25.1875 0 Z M 75.5625 -33.578125 L 75.5625 -67.171875 L 92.359375 -67.171875 L 92.359375 -33.578125 Z M 75.5625 -33.578125 "/></g></g></g><g fill="#ffffff" fill-opacity="1"><g transform="translate(243.079145, 740.181095)"><g><path d="M 8.390625 0 L 8.390625 -83.953125 L 92.359375 -83.953125 L 92.359375 -67.171875 L 25.1875 -67.171875 L 25.1875 -50.375 L 75.5625 -50.375 L 75.5625 -33.578125 L 25.1875 -33.578125 L 25.1875 -16.796875 L 92.359375 -16.796875 L 92.359375 0 Z M 8.390625 0 "/></g></g></g><g fill="#ffffff" fill-opacity="1"><g transform="translate(343.831411, 740.181095)"><g><path d="M 8.390625 0 L 8.390625 -83.953125 L 75.5625 -83.953125 L 75.5625 -67.171875 L 25.1875 -67.171875 L 25.1875 -33.578125 L 75.5625 -33.578125 L 75.5625 -16.796875 L 25.1875 -16.796875 L 25.1875 0 Z M 75.5625 -33.578125 L 75.5625 -67.171875 L 92.359375 -67.171875 L 92.359375 -33.578125 Z M 75.5625 -33.578125 "/></g></g></g><g fill="#ffffff" fill-opacity="1"><g transform="translate(444.583678, 740.181095)"><g><path d="M 8.390625 0 L 8.390625 -83.953125 L 92.359375 -83.953125 L 92.359375 -67.171875 L 25.1875 -67.171875 L 25.1875 -50.375 L 75.5625 -50.375 L 75.5625 -33.578125 L 25.1875 -33.578125 L 25.1875 -16.796875 L 92.359375 -16.796875 L 92.359375 0 Z M 8.390625 0 "/></g></g></g><g fill="#ffffff" fill-opacity="1"><g transform="translate(1171.413948, 740.181095)"><g><path d="M 25.1875 -67.171875 L 25.1875 -50.375 L 8.390625 -50.375 L 8.390625 -67.171875 Z M 8.390625 0 L 8.390625 -16.796875 L 75.5625 -16.796875 L 75.5625 0 Z M 25.1875 -33.578125 L 25.1875 -50.375 L 75.5625 -50.375 L 75.5625 -33.578125 Z M 25.1875 -67.171875 L 25.1875 -83.953125 L 92.359375 -83.953125 L 92.359375 -67.171875 Z M 75.5625 -16.796875 L 75.5625 -33.578125 L 92.359375 -33.578125 L 92.359375 -16.796875 Z M 75.5625 -16.796875 "/></g></g></g><g fill="#ffffff" fill-opacity="1"><g transform="translate(1272.166215, 740.181095)"><g><path d="M 25.1875 -67.171875 L 25.1875 -16.796875 L 8.390625 -16.796875 L 8.390625 -67.171875 Z M 25.1875 0 L 25.1875 -16.796875 L 92.359375 -16.796875 L 92.359375 0 Z M 25.1875 -67.171875 L 25.1875 -83.953125 L 92.359375 -83.953125 L 92.359375 -67.171875 Z M 25.1875 -67.171875 "/></g></g></g><g fill="#ffffff" fill-opacity="1"><g transform="translate(1372.918481, 740.181095)"><g><path d="M 75.5625 -16.796875 L 75.5625 0 L 25.1875 0 L 25.1875 -16.796875 Z M 8.390625 -16.796875 L 8.390625 -67.171875 L 25.1875 -67.171875 L 25.1875 -16.796875 Z M 25.1875 -67.171875 L 25.1875 -83.953125 L 75.5625 -83.953125 L 75.5625 -67.171875 Z M 75.5625 -16.796875 L 75.5625 -67.171875 L 92.359375 -67.171875 L 92.359375 -16.796875 Z M 75.5625 -16.796875 "/></g></g></g><g fill="#ffffff" fill-opacity="1"><g transform="translate(1473.670748, 740.181095)"><g><path d="M 8.390625 0 L 8.390625 -83.953125 L 75.5625 -83.953125 L 75.5625 -67.171875 L 25.1875 -67.171875 L 25.1875 -33.578125 L 75.5625 -33.578125 L 75.5625 -16.796875 L 25.1875 -16.796875 L 25.1875 0 Z M 75.5625 0 L 75.5625 -16.796875 L 92.359375 -16.796875 L 92.359375 0 Z M 75.5625 -33.578125 L 75.5625 -67.171875 L 92.359375 -67.171875 L 92.359375 -33.578125 Z M 75.5625 -33.578125 "/></g></g></g><g fill="#ffffff" fill-opacity="1"><g transform="translate(1574.423015, 740.181095)"><g><path d="M 8.390625 0 L 8.390625 -83.953125 L 92.359375 -83.953125 L 92.359375 -67.171875 L 25.1875 -67.171875 L 25.1875 -50.375 L 75.5625 -50.375 L 75.5625 -33.578125 L 25.1875 -33.578125 L 25.1875 -16.796875 L 92.359375 -16.796875 L 92.359375 0 Z M 8.390625 0 "/></g></g></g><g fill="#ffffff" fill-opacity="1"><g transform="translate(1221.780587, 1051.71795)"><g><path d="M 8.390625 0 L 8.390625 -83.953125 L 75.5625 -83.953125 L 75.5625 -67.171875 L 25.1875 -67.171875 L 25.1875 -50.375 L 75.5625 -50.375 L 75.5625 -33.578125 L 25.1875 -33.578125 L 25.1875 -16.796875 L 75.5625 -16.796875 L 75.5625 0 Z M 75.5625 -16.796875 L 75.5625 -33.578125 L 92.359375 -33.578125 L 92.359375 -16.796875 Z M 75.5625 -50.375 L 75.5625 -67.171875 L 92.359375 -67.171875 L 92.359375 -50.375 Z M 75.5625 -50.375 "/></g></g></g><g fill="#ffffff" fill-opacity="1"><g transform="translate(1322.532854, 1051.71795)"><g><path d="M 8.390625 0 L 8.390625 -83.953125 L 92.359375 -83.953125 L 92.359375 -67.171875 L 25.1875 -67.171875 L 25.1875 -50.375 L 75.5625 -50.375 L 75.5625 -33.578125 L 25.1875 -33.578125 L 25.1875 -16.796875 L 92.359375 -16.796875 L 92.359375 0 Z M 8.390625 0 "/></g></g></g><g fill="#ffffff" fill-opacity="1"><g transform="translate(1423.28512, 1051.71795)"><g><path d="M 25.1875 -67.171875 L 25.1875 -50.375 L 8.390625 -50.375 L 8.390625 -67.171875 Z M 8.390625 0 L 8.390625 -16.796875 L 75.5625 -16.796875 L 75.5625 0 Z M 25.1875 -33.578125 L 25.1875 -50.375 L 75.5625 -50.375 L 75.5625 -33.578125 Z M 25.1875 -67.171875 L 25.1875 -83.953125 L 92.359375 -83.953125 L 92.359375 -67.171875 Z M 75.5625 -16.796875 L 75.5625 -33.578125 L 92.359375 -33.578125 L 92.359375 -16.796875 Z M 75.5625 -16.796875 "/></g></g></g><g fill="#ffffff" fill-opacity="1"><g transform="translate(1524.037387, 1051.71795)"><g><path d="M 41.984375 0 L 41.984375 -67.171875 L 8.390625 -67.171875 L 8.390625 -83.953125 L 92.359375 -83.953125 L 92.359375 -67.171875 L 58.765625 -67.171875 L 58.765625 0 Z M 41.984375 0 "/></g></g></g></svg>